<svg xmlns="http://www.w3.org/2000/svg" viewBox="0 0 1920 1920">
  <defs>
    <clipPath id="logo">
      <rect x="0" y="0" width="1920" height="1920" />
    </clipPath>
  </defs>
  <g clip-path="url(#logo)">
          <rect fill="white" width="1920" height="1920"/>
    <g transform="scale(4.8)">
      <g fill="none" font-family="none" font-size="none" font-weight="none" stroke-linecap="none" stroke-miterlimit="10" style="mix-blend-mode:normal" text-anchor="none">
<g id="symbol" stroke-width="0">
<g id="logo-symbol">
<g fill="#015845" id="stroke" stroke-linecap="butt">
<g id="stroke">
<path d="m47.071 75.63 53.333 53.333c3.9052 3.9052 3.9052 10.237 0 14.142-3.9052 3.9052-10.237 3.9052-14.142 0l-53.333-53.333c-3.9052-3.9052-3.9052-10.237 0-14.142 3.9052-3.9052 10.237-3.9052 14.142 0z" id="stroke"/>
</g>
</g>
<path d="m93.333 82.701 53.333 53.333" fill="none" stroke-linecap="round"/>
<path d="m146.67 82.701 53.333 53.333" fill="none" stroke-linecap="round"/>
<path d="m40 136.03 53.333 53.333" fill="none" stroke-linecap="round"/>
<path d="m93.333 136.03 53.333 53.333" fill="none" stroke-linecap="round"/>
<path d="m146.67 189.37 53.333-53.333" fill="none" stroke-linecap="round"/>
<path d="m306.67 189.37 53.333-53.333" fill="none" stroke-linecap="round"/>
<path d="m40 189.37 53.333 53.333" fill="none" stroke-linecap="round"/>
<path d="m93.333 189.37 53.333 53.333" fill="none" stroke-linecap="round"/>
<path d="m146.67 189.37 53.333 53.333" fill="none" stroke-linecap="round"/>
<path d="m200 189.37 53.333 53.333" fill="none" stroke-linecap="round"/>
<path d="m253.33 189.37 53.333 53.333" fill="none" stroke-linecap="round"/>
<path d="m306.67 189.37 53.333 53.333" fill="none" stroke-linecap="round"/>
<g fill="#015845" id="stroke" stroke-linecap="butt">
<path d="m86.262 75.63c3.9052-3.9052 10.237-3.9052 14.142 0l53.333 53.333c3.9052 3.9052 3.9052 10.237 0 14.142-3.9052 3.9052-10.237 3.9052-14.142 0l-53.333-53.333c-3.9052-3.9052-3.9052-10.237 0-14.142z" id="stroke"/>
<path d="m139.6 75.63c3.9052-3.9052 10.237-3.9052 14.142 0l53.333 53.333c3.9052 3.9052 3.9052 10.237 0 14.142-3.9052 3.9052-10.237 3.9052-14.142 0l-53.333-53.333c-3.9052-3.9052-3.9052-10.237 0-14.142z" id="stroke"/>
<path d="m207.07 75.63 53.333 53.333c3.9052 3.9052 3.9052 10.237 0 14.142-3.9052 3.9052-10.237 3.9052-14.142 0l-53.333-53.333c-3.9052-3.9052-3.9052-10.237 0-14.142 3.9052-3.9052 10.237-3.9052 14.142 0z" id="stroke"/>
<path d="m260.4 75.63 53.333 53.333c3.9052 3.9052 3.9052 10.237 0 14.142-3.9052 3.9052-10.237 3.9052-14.142 0l-53.333-53.333c-3.9052-3.9052-3.9052-10.237 0-14.142 3.9052-3.9052 10.237-3.9052 14.142 0z" id="stroke"/>
<path d="m313.74 75.63 53.333 53.333c3.9052 3.9052 3.9052 10.237 0 14.142-3.9052 3.9052-10.237 3.9052-14.142 0l-53.333-53.333c-3.9052-3.9052-3.9052-10.237 0-14.142 3.9052-3.9052 10.237-3.9052 14.142 0z" id="stroke"/>
<path d="m32.929 128.96c3.9052-3.9052 10.237-3.9052 14.142 0l53.333 53.333c3.9052 3.9052 3.9052 10.237 0 14.142-3.9052 3.9052-10.237 3.9052-14.142 0l-53.333-53.333c-3.9052-3.9052-3.9052-10.237 0-14.142z" id="stroke"/>
<path d="m86.262 128.96c3.9052-3.9052 10.237-3.9052 14.142 0l53.333 53.333c3.9052 3.9052 3.9052 10.237 0 14.142-3.9052 3.9052-10.237 3.9052-14.142 0l-53.333-53.333c-3.9052-3.9052-3.9052-10.237 0-14.142z" id="stroke"/>
<path d="m139.6 196.44c-3.9052-3.9052-3.9052-10.237 0-14.142l53.333-53.333c3.9052-3.9052 10.237-3.9052 14.142 0 3.9052 3.9052 3.9052 10.237 0 14.142l-53.333 53.333c-3.9052 3.9052-10.237 3.9052-14.142 0z" id="stroke"/>
<path d="m192.93 182.3 53.333-53.333c3.9052-3.9052 10.237-3.9052 14.142 0 3.9052 3.9052 3.9052 10.237 0 14.142l-53.333 53.333c-3.9052 3.9052-10.237 3.9052-14.142 0-3.9052-3.9052-3.9052-10.237 0-14.142z" id="stroke"/>
<path d="m260.4 128.96 53.333 53.333c3.9052 3.9052 3.9052 10.237 0 14.142-3.9052 3.9052-10.237 3.9052-14.142 0l-53.333-53.333c-3.9052-3.9052-3.9052-10.237 0-14.142 3.9052-3.9052 10.237-3.9052 14.142 0z" id="stroke"/>
<path d="m299.6 196.44c-3.9052-3.9052-3.9052-10.237 0-14.142l53.333-53.333c3.9052-3.9052 10.237-3.9052 14.142 0 3.9052 3.9052 3.9052 10.237 0 14.142l-53.333 53.333c-3.9052 3.9052-10.237 3.9052-14.142 0z" id="stroke"/>
<path d="m32.929 182.3c3.9052-3.9052 10.237-3.9052 14.142 0l53.333 53.333c3.9052 3.9052 3.9052 10.237 0 14.142-3.9052 3.9052-10.237 3.9052-14.142 0l-53.333-53.333c-3.9052-3.9052-3.9052-10.237 0-14.142z" id="stroke"/>
<path d="m86.262 182.3c3.9052-3.9052 10.237-3.9052 14.142 0l53.333 53.333c3.9052 3.9052 3.9052 10.237 0 14.142-3.9052 3.9052-10.237 3.9052-14.142 0l-53.333-53.333c-3.9052-3.9052-3.9052-10.237 0-14.142z" id="stroke"/>
<path d="m139.6 182.3c3.9052-3.9052 10.237-3.9052 14.142 0l53.333 53.333c3.9052 3.9052 3.9052 10.237 0 14.142-3.9052 3.9052-10.237 3.9052-14.142 0l-53.333-53.333c-3.9052-3.9052-3.9052-10.237 0-14.142z" id="stroke"/>
<path d="m192.93 182.3c3.9052-3.9052 10.237-3.9052 14.142 0l53.333 53.333c3.9052 3.9052 3.9052 10.237 0 14.142-3.9052 3.9052-10.237 3.9052-14.142 0l-53.333-53.333c-3.9052-3.9052-3.9052-10.237 0-14.142z" id="stroke"/>
<path d="m246.26 182.3c3.9052-3.9052 10.237-3.9052 14.142 0l53.333 53.333c3.9052 3.9052 3.9052 10.237 0 14.142-3.9052 3.9052-10.237 3.9052-14.142 0l-53.333-53.333c-3.9052-3.9052-3.9052-10.237 0-14.142z" id="stroke"/>
<path d="m299.6 182.3c3.9052-3.9052 10.237-3.9052 14.142 0l53.333 53.333c3.9052 3.9052 3.9052 10.237 0 14.142-3.9052 3.9052-10.237 3.9052-14.142 0l-53.333-53.333c-3.9052-3.9052-3.9052-10.237 0-14.142z" id="stroke"/>
</g>
</g>
</g>
</g>
    </g>
  </g>
</svg>